<svg xmlns="http://www.w3.org/2000/svg" xmlns:xlink="http://www.w3.org/1999/xlink" width="26" height="26" viewBox="0 0 26 26">
    <defs>
        <path id="k3bw042jza" d="M2.502 1.75c.38 0 .694.282.743.648l.007.102V22c0 .38.282.693.648.743l.102.007h19.496c.414 0 .75.336.75.75 0 .38-.282.693-.648.743l-.102.007H4.002c-1.19 0-2.166-.925-2.245-2.096L1.752 22V2.5c0-.414.336-.75.75-.75zm4 13c.38 0 .694.282.743.648l.007.102v5c0 .414-.336.75-.75.75-.38 0-.693-.282-.743-.648l-.007-.102v-5c0-.414.336-.75.75-.75zm4-3c.38 0 .694.282.743.648l.007.102v8c0 .414-.336.75-.75.75-.38 0-.693-.282-.743-.648l-.007-.102v-8c0-.414.336-.75.75-.75zm4-3c.38 0 .694.282.743.648l.007.102v11c0 .414-.336.75-.75.75-.38 0-.693-.282-.743-.648l-.007-.102v-11c0-.414.336-.75.75-.75zm4-3c.38 0 .694.282.743.648l.007.102v14c0 .414-.336.75-.75.75-.38 0-.693-.282-.743-.648l-.007-.102v-14c0-.414.336-.75.75-.75zm4-3c.38 0 .694.282.743.648l.007.102v17c0 .414-.336.75-.75.75-.38 0-.693-.282-.743-.648l-.007-.102v-17c0-.414.336-.75.75-.75z"/>
    </defs>
    <g fill="none" fill-rule="evenodd">
        <g>
            <use fill="#056DAE" xlink:href="#k3bw042jza"/>
        </g>
    </g>
</svg>
