<svg xmlns="http://www.w3.org/2000/svg" width="145" height="41" viewBox="0 0 145 41">
    <g fill="none" fill-rule="evenodd">
        <g>
            <g>
                <g>
                    <g>
                        <g>
                            <path fill="#ED1C24" d="M26.29 4.511h-2.477c-1.694-1.713-3.92-2.645-6.186-2.645-2.307.005-4.494.932-6.192 2.645H8.963C10.817 1.81 14.134 0 17.627 0c3.544-.002 6.868 1.863 8.663 4.511zM112.78 1.805c.68 0 1.123.293 1.685 1.02.383.517.82 1.192 1.069 1.588.309-.487.662-1.009 1.022-1.499.33-.405.734-.573 1.143-.573.734 0 1.497.449 2.002.814.693.53 1.511 1.34 1.973 2.179.262.457.398.833.398 1.194 0 .424-.189.843-.583 1.382-.378.518-.89 1.15-1.19 1.504.564.14 1.173.32 1.746.511.804.264 1.042.872 1.042 1.528 0 1.231-.85 3.097-1.755 4.07-.516.554-.928.813-1.444.813-.298 0-.625-.066-1.03-.197-.615-.2-1.371-.491-1.8-.663.036.577.049.86.049 1.821 0 1.535-1.712 1.65-2.677 1.65-.922 0-2.048-.178-2.932-.584-.994-.485-1.316-.955-1.316-2.556 0-.64.044-1.094.077-1.562-.546.211-1.137.423-1.716.61-1.463.485-2.097-1.11-2.393-2.03-.292-.868-.39-1.664-.39-2.35 0-1.597.5-2.138 1.707-2.531.614-.199 1.396-.4 1.845-.517-.363-.445-.75-.943-1.105-1.44-.219-.291-.31-.576-.31-.844 0-.888.905-1.616 1.504-2.052.745-.511 2.132-1.286 3.38-1.286zm-.442 11.31c-.176.188-.399.316-.613.438-.302.183-.735.379-1.192.585.497.519 1.784 1.563 3.694 1.563.433 0 .578-.213.578-.453 0-.322-.316-.492-.812-.641-.628-.193-1.692-.456-1.692-1.26 0-.085.014-.166.037-.232zm6.954-1.657c-.245 0-.472.189-.725.543-.375.54-.957 1.471-1.719 1.22-.085-.03-.164-.062-.22-.107.125.224.183.472.239.71.07.35.131.825.17 1.359.467-.255 1.28-.768 1.947-1.676.483-.708.75-1.372.75-1.656 0-.278-.267-.393-.442-.393zm-4.792-4.54c-.091.472-.596 1.015-1.342 1.56-.837.603-1.393.758-1.81.701.421.231.78.875 1.067 1.757.171.514.247.885.247 1.213 0 .284-.052.498-.138.673.358-.327 1.081-.474 2.006-.474 1.029 0 1.577.203 1.877.495-.07-.168-.107-.372-.104-.609 0-.393.099-.846.273-1.397.318-.968.678-1.423 1.055-1.625-.481.059-1.148-.247-1.901-.792-.828-.605-1.152-1.085-1.23-1.502zm-4.998.735c-.325.675-.92 2.218-.334 3.982.129.406.383.483.61.41.313-.103.376-.411.368-.922-.018-.655-.096-1.75.673-1.995.076-.036.134-.043.193-.037-.317-.158-.845-.67-1.51-1.438zm8.056-1.922c-.228 0-.426.207-.426.434 0 .21.148.452.365.744.299.4.787.983.787 1.523 0 .35-.203.573-.326.66.106-.024.211-.032.32-.032.387 0 1.075.109 1.755.287-.109-.749-.533-2.345-2.08-3.46-.15-.108-.278-.156-.395-.156zm-3.009-1.124c-.86 0-2.013.178-3.12.982-.219.153-.293.314-.293.445 0 .136.107.445.48.445.535 0 1.251-.47 1.989-.47.692 0 .86.495.884.57.02-.32.303-1.002.883-1.916-.206-.034-.49-.056-.823-.056z" transform="translate(-16 -38) translate(0 34) translate(16 4) translate(0 .48) translate(10.456 10.526)"/>
                            <path fill="#FFF" d="M23.004 16.842L25.095 16.842 25.095 6.316 23.004 6.316zM21.09 14.66l.122-.079-.51 2.057-.024.015c-.346.22-.928.51-1.881.489-1.416-.024-2.362-1.146-2.362-2.788V8.335H14.64V6.33h1.796V4.159l2.089-1.151V6.33h2.158v2.005h-2.158v5.661c0 .83.304 1.202.994 1.202.474 0 1.005-.18 1.573-.537zM10.456 16.842L12.548 16.842 12.548 6.316 10.456 6.316zM2.173 11.728c0 1.956 1.372 3.363 3.266 3.363.91 0 1.792-.405 2.55-1.176l.046-.05 1.226 1.466-.034.038C8.21 16.564 6.993 17.143 5.5 17.143c-1.5 0-2.867-.5-3.863-1.409C.57 14.751 0 13.364 0 11.728c0-1.64.57-3.024 1.636-4.006C2.632 6.813 4 6.316 5.5 6.316c1.494 0 2.71.575 3.728 1.77l.034.037-1.226 1.469-.045-.047C7.23 8.77 6.35 8.361 5.439 8.361c-1.894 0-3.266 1.42-3.266 3.367zM104.564 16.842h-2.435l-.99-1.824c-.416-.762-.891-1.725-1.09-2.126-.177.401-.731 1.424-1.128 2.146l-1.01 1.804h-2.31l3.19-5.453-2.971-5.073h2.368l.813 1.484c.415.761.91 1.704 1.089 2.105.218-.401.712-1.404 1.108-2.146l.792-1.443h2.356l-2.99 5.073 3.208 5.453zM90.781 6.015c2.944 0 4.522 2.462 4.522 5.35 0 .387-.04.733-.06.956h-7.166c.217 2.055 1.498 2.903 2.763 2.903.87 0 1.794-.326 2.485-.855l1.128 1.37c-.909.895-2.15 1.404-3.731 1.404-2.43 0-4.68-2.014-4.68-5.554 0-3.621 2.052-5.574 4.739-5.574zm-.138 1.892c-1.364 0-2.349.976-2.526 2.685h5.131c-.1-1.465-.926-2.685-2.605-2.685zM84.548 10.683v6.16h-2.1v-6c0-2.142-.655-2.909-2.005-2.909-1.369 0-1.976.99-1.976 2.707v6.201h-2.1v-6c0-2.14-.627-2.908-1.978-2.908-1.368 0-2.081.99-2.081 2.707v6.201h-2.1V6.237h2.1v1.01c.515-.767 1.487-1.232 2.558-1.232 1.41 0 2.302.545 2.859 1.555.753-.949 1.568-1.555 3.194-1.555 2.422 0 3.629 1.113 3.629 4.668zM64.195 6.015c2.378 0 4.22 1.16 4.22 3.58v7.324h-2.15v-1.058c-.732.733-1.848 1.282-3.006 1.282-1.728 0-3.807-.977-3.807-3.6 0-2.381 1.937-3.46 4.356-3.46.995 0 1.868.143 2.457.408v-.794c0-1.16-.87-1.81-2.171-1.81-1.098 0-1.951.203-2.785.67l-.812-1.586c1.016-.63 2.194-.956 3.698-.956zm-.448 5.88c-1.342 0-2.275.61-2.275 1.586 0 1.058.75 1.77 2.132 1.77 1.118 0 2.173-.692 2.661-1.363v-1.526c-.569-.285-1.38-.468-2.518-.468zM43.58 6.015c2.378 0 4.22 1.16 4.22 3.58v7.324h-2.15v-1.058c-.73.733-1.847 1.282-3.005 1.282-1.728 0-3.807-.977-3.807-3.6 0-2.381 1.937-3.46 4.355-3.46.996 0 1.868.143 2.458.408v-.794c0-1.16-.871-1.81-2.172-1.81-1.097 0-1.95.203-2.784.67l-.813-1.586c1.017-.63 2.195-.956 3.699-.956zm-.448 5.88c-1.34 0-2.274.61-2.274 1.586 0 1.058.75 1.77 2.132 1.77 1.118 0 2.173-.692 2.66-1.363v-1.526c-.568-.285-1.38-.468-2.518-.468zM58.257 10.762v6.08h-2.124v-6c0-2.14-.803-2.908-2.168-2.908-1.386 0-2.247.99-2.247 2.707v6.201h-2.125V6.237h2.125v1.01c.522-.767 1.68-1.232 2.765-1.232 2.45 0 3.774 1.37 3.774 4.747zM30.788 3.008v4.317c.757-.707 1.79-1.232 2.885-1.232 2.25 0 4.269 1.657 4.269 5.697 0 3.636-2.197 5.353-4.369 5.353-1.055 0-2.207-.566-2.785-1.212v.99H28.68V4.154l2.108-1.146zm2.507 5.004c-.976 0-1.99.667-2.527 1.354v4.464c.458.626 1.57 1.394 2.606 1.394 1.474 0 2.505-1.131 2.505-3.374 0-2.666-1.07-3.838-2.584-3.838z" transform="translate(-16 -38) translate(0 34) translate(16 4) translate(0 .48) translate(10.456 10.526)"/>
                        </g>
                    </g>
                </g>
            </g>
        </g>
    </g>
</svg>
