<svg xmlns="http://www.w3.org/2000/svg" xmlns:xlink="http://www.w3.org/1999/xlink" width="26" height="26" viewBox="0 0 26 26">
    <defs>
        <path id="riv617jbqa" d="M19.5 3.75c.918 0 1.671.707 1.744 1.606l.006.144v2.25h2.25c.918 0 1.671.707 1.744 1.606l.006.144v11c0 .918-.707 1.671-1.606 1.744l-.144.006h-17c-.918 0-1.671-.707-1.744-1.606L4.75 20.5v-2.25H2.5c-.918 0-1.671-.707-1.744-1.606L.75 16.5v-11c0-.918.707-1.671 1.606-1.744L2.5 3.75h17zm1.75 12.75c0 .918-.707 1.671-1.606 1.744l-.144.006H6.25v2.25c0 .118.082.217.193.243l.057.007h17c.118 0 .217-.082.243-.193l.007-.057v-11c0-.118-.082-.217-.193-.243L23.5 9.25h-2.25v7.25zm-1.5-8.25H2.25v8.25c0 .118.082.217.193.243l.057.007h17c.118 0 .217-.082.243-.193l.007-.057V8.25zm-2.75 3c.918 0 1.671.707 1.744 1.606l.006.144v1c0 .918-.707 1.671-1.606 1.744L17 15.75h-3c-.918 0-1.671-.707-1.744-1.606L12.25 14v-1c0-.918.707-1.671 1.606-1.744L14 11.25h3zm0 1.5h-3c-.118 0-.217.082-.243.193L13.75 13v1c0 .118.082.217.193.243l.057.007h3c.118 0 .217-.082.243-.193L17.25 14v-1c0-.118-.082-.217-.193-.243L17 12.75zm2.5-7.5h-17c-.118 0-.217.082-.243.193L2.25 5.5v1.25h17.5V5.5c0-.118-.082-.217-.193-.243L19.5 5.25z"/>
    </defs>
    <g fill="none" fill-rule="evenodd">
        <g>
            <use fill="#056DAE" xlink:href="#riv617jbqa"/>
        </g>
    </g>
</svg>
