<svg xmlns="http://www.w3.org/2000/svg" xmlns:xlink="http://www.w3.org/1999/xlink" width="26" height="26" viewBox="0 0 26 26">
    <defs>
        <path id="xoiq8hbh7a" d="M22.5 1.25c.918 0 1.671.707 1.744 1.606L24.25 3v12.747l.468.467c.67.671.707 1.735.111 2.45l-.111.122-5.432 5.432c-.671.67-1.735.707-2.45.111l-.122-.111-5.432-5.432c-.29-.291-.462-.656-.515-1.035L2.5 17.75c-.918 0-1.671-.707-1.744-1.606L.75 16V3c0-.918.707-1.671 1.606-1.744L2.5 1.25h20zm-4.275 10.593c-.107-.106-.27-.122-.392-.045l-.058.045-5.432 5.432c-.106.107-.122.27-.045.392l.045.058 5.432 5.432c.107.106.27.122.392.045l.058-.045 5.432-5.432c.106-.107.122-.27.045-.392l-.045-.058-5.432-5.432zM18 20.25c.414 0 .75.336.75.75s-.336.75-.75.75-.75-.336-.75-.75.336-.75.75-.75zm0-7c.328 0 .611.211.714.528l.027.11.009.112v3.526l-.042.654c-.051.651-.12 1.052-.22 1.236-.112.21-.278.334-.488.334-.205 0-.36-.127-.475-.328-.117-.204-.194-.68-.25-1.487l-.025-.431V14c0-.414.336-.75.75-.75zm4.75-6.5H2.25V16c0 .118.082.217.193.243l.057.007h8.749l.033-.036 5.432-5.432c.671-.67 1.735-.707 2.45-.111l.122.111 3.464 3.465V6.75zm-.25-4h-20c-.118 0-.217.082-.243.193L2.25 3v2.25h20.5V3c0-.118-.082-.217-.193-.243L22.5 2.75z"/>
    </defs>
    <g fill="none" fill-rule="evenodd">
        <g>
            <use fill="#056DAE" xlink:href="#xoiq8hbh7a"/>
        </g>
    </g>
</svg>
