<svg xmlns="http://www.w3.org/2000/svg" xmlns:xlink="http://www.w3.org/1999/xlink" width="26" height="26" viewBox="0 0 26 26">
    <defs>
        <path id="1u405qgy0a" d="M15.5 1.75c.918 0 1.671.707 1.744 1.606l.006.144v4.25h6.25l.144.006c.849.069 1.527.744 1.6 1.593l.006.151v9l-.006.144c-.069.849-.744 1.527-1.593 1.6l-.151.006h-1l-.057.007c-.089.02-.159.088-.184.175l-.009.068v3l-.007.102c-.068.527-.663.816-1.12.547l-.09-.062-4.764-3.783-.048-.03-.052-.018-.056-.006H10.5l-.144-.006c-.849-.069-1.527-.744-1.6-1.593L8.75 18.5v-3.417l-3.784 3.004c-.464.369-1.136.077-1.21-.485L3.75 17.5v-3c0-.118-.082-.217-.193-.243L3.5 14.25h-1c-.918 0-1.671-.707-1.744-1.606L.75 12.5v-9c0-.918.707-1.671 1.606-1.744L2.5 1.75h13zm1.75 10.75c0 .918-.707 1.671-1.606 1.744l-.144.006h-5.25v4.25l.007.057c.02.089.088.159.175.184l.068.009h5.613l.169.008c.279.027.547.12.783.273l.136.098 3.549 2.817V20.5l.006-.144c.069-.849.744-1.527 1.593-1.6l.151-.006h1l.057-.007c.089-.02.159-.088.184-.175l.009-.068v-9l-.007-.057c-.02-.089-.088-.159-.175-.184L23.5 9.25h-6.25v3.25zM15.5 3.25h-13c-.118 0-.217.082-.243.193L2.25 3.5v9c0 .118.082.217.193.243l.057.007h1c.918 0 1.671.707 1.744 1.606l.006.144v1.446l3.549-2.817c.22-.175.48-.293.753-.347l.166-.024.169-.008H15.5c.118 0 .217-.082.243-.193l.007-.057v-9c0-.118-.082-.217-.193-.243L15.5 3.25z"/>
    </defs>
    <g fill="none" fill-rule="evenodd">
        <g>
            <use fill="#ffffff" xlink:href="#1u405qgy0a"/>
        </g>
    </g>
</svg>
