<svg xmlns="http://www.w3.org/2000/svg" xmlns:xlink="http://www.w3.org/1999/xlink" width="26" height="26" viewBox="0 0 26 26">
    <defs>
        <path id="ohb5ox88da" d="M20.75 3.748l.193.025 3.75 1c.4.107.638.518.532.918-.098.367-.452.598-.818.551l-.1-.02-2.983-.797c3.25 3.566 3.9 8.906 1.42 13.2-2.65 4.591-8.125 6.683-13.116 5.11-.395-.125-.614-.546-.49-.941.125-.395.546-.614.941-.49 4.324 1.363 9.07-.45 11.367-4.429 2.139-3.705 1.59-8.31-1.195-11.4l-.001 3.023c0 .414-.336.75-.75.75-.38 0-.694-.282-.743-.648l-.007-.102v-3.75c0-1.054.816-1.918 1.85-1.994l.15-.006zm-4.373-1.482c.395.124.614.545.49.94-.125.395-.547.615-.942.49-4.324-1.364-9.07.45-11.367 4.429-2.139 3.704-1.591 8.307 1.192 11.397v-3.024c0-.414.336-.75.75-.75.38 0 .694.282.743.648l.007.102v3.75c0 1.054-.816 1.918-1.85 1.995l-.15.005-.193-.025-3.75-1c-.4-.107-.638-.518-.532-.918.098-.367.452-.598.818-.551l.1.02 2.982.796C1.428 17.003.78 11.666 3.259 7.375c2.65-4.591 8.126-6.684 13.118-5.11zM13 5.748c.38 0 .693.282.743.648l.007.102v.782c.777.09 1.587.375 2.427.847.36.202.49.66.287 1.02-.203.362-.66.49-1.021.288-.904-.507-1.708-.727-2.417-.68-1.34.087-1.961.51-2.102 1.35l-.018.135c-.11.69.482 1.296 2.066 1.81l.222.07c2.355.71 3.623 1.86 3.553 3.502-.103 1.763-1.17 2.813-2.996 3.066l-.001.81c0 .414-.336.75-.75.75-.38 0-.694-.282-.743-.648l-.007-.102v-.775c-1.053-.092-1.965-.439-2.72-1.044-.322-.259-.374-.73-.115-1.054.259-.323.731-.375 1.054-.116.637.511 1.458.76 2.492.738 1.558-.033 2.222-.564 2.288-1.7.032-.744-.646-1.394-2.252-1.918l-.236-.074c-2.295-.692-3.513-1.813-3.364-3.338l.022-.17c.153-1.511 1.159-2.427 2.831-2.711v-.838c0-.414.336-.75.75-.75z"/>
    </defs>
    <g fill="none" fill-rule="evenodd">
        <g>
            <use fill="#056DAE" xlink:href="#ohb5ox88da"/>
        </g>
    </g>
</svg>
