<svg xmlns="http://www.w3.org/2000/svg" width="482" height="133" viewBox="0 0 482 133" style="background:#056dae">
    <g fill="none" fill-rule="evenodd">
        <g>
            <path fill="#056DAE" d="M0 0H482V133H0z"/>
            <g>
                <path fill="#ED1C24" d="M88 15h-8.292C74.037 9.302 66.588 6.204 59 6.204 51.28 6.223 43.96 9.302 38.275 15H30C36.206 6.017 47.31 0 59 0c11.864-.005 22.99 6.196 29 15zM377.502 6c2.272 0 3.757.976 5.638 3.392 1.28 1.72 2.742 3.963 3.577 5.28 1.035-1.62 2.217-3.353 3.423-4.982 1.104-1.349 2.456-1.906 3.826-1.906 2.456 0 5.01 1.492 6.7 2.705 2.32 1.763 5.06 4.454 6.602 7.245.88 1.522 1.336 2.77 1.336 3.971 0 1.411-.634 2.805-1.952 4.597-1.268 1.722-2.978 3.823-3.986 5.001 1.89.466 3.928 1.063 5.846 1.698 2.69.879 3.488 2.9 3.488 5.08 0 4.094-2.844 10.297-5.876 13.533-1.727 1.841-3.104 2.705-4.83 2.705-.999 0-2.096-.22-3.448-.658-2.061-.662-4.592-1.631-6.026-2.202.119 1.919.163 2.858.163 6.055 0 5.103-5.73 5.486-8.96 5.486-3.085 0-6.857-.593-9.813-1.943-3.329-1.611-4.405-3.174-4.405-8.498 0-1.803.105-3.16.203-4.477l.052-.716c-1.826.702-3.805 1.407-5.743 2.028-4.895 1.61-7.018-3.689-8.009-6.75C354.33 39.76 354 37.11 354 34.828c0-5.309 1.676-7.105 5.716-8.414 2.054-.66 4.674-1.327 6.176-1.72-1.216-1.477-2.51-3.132-3.7-4.785-.732-.97-1.038-1.917-1.038-2.806 0-2.955 3.032-5.374 5.035-6.826C368.682 8.578 373.325 6 377.502 6zm-1.482 37.608c-.59.625-1.335 1.051-2.05 1.455-1.013.61-2.46 1.26-3.99 1.947 1.663 1.725 5.968 5.197 12.363 5.197 1.45 0 1.934-.71 1.934-1.507 0-1.07-1.056-1.635-2.718-2.133-2.102-.642-5.662-1.515-5.662-4.186 0-.284.045-.554.123-.773zm23.277-5.51c-.821 0-1.58.628-2.426 1.807-1.257 1.796-3.205 4.89-5.753 4.054-.286-.102-.552-.205-.736-.354.416.743.61 1.568.797 2.358.235 1.167.44 2.746.569 4.52 1.564-.847 4.285-2.552 6.517-5.574 1.618-2.352 2.514-4.56 2.514-5.503 0-.924-.896-1.308-1.482-1.308zm-16.042-15.095c-.303 1.57-1.992 3.375-4.49 5.184-2.803 2.007-4.663 2.524-6.06 2.335 1.41.768 2.613 2.908 3.574 5.839.572 1.711.824 2.945.824 4.033 0 .944-.173 1.657-.46 2.237 1.2-1.085 3.618-1.574 6.715-1.574 3.444 0 5.276.675 6.281 1.646-.235-.558-.357-1.236-.347-2.023 0-1.307.33-2.813.913-4.646 1.066-3.22 2.269-4.73 3.532-5.405-1.61.197-3.842-.821-6.363-2.631-2.773-2.014-3.856-3.609-4.119-4.995zm-16.73 2.443c-1.086 2.244-3.075 7.375-1.116 13.24.432 1.35 1.284 1.605 2.043 1.361 1.046-.34 1.258-1.365 1.23-3.064-.058-2.178-.32-5.82 2.255-6.632.252-.12.447-.145.644-.124-1.06-.526-2.827-2.229-5.055-4.78zm26.967-6.39c-.763 0-1.424.687-1.424 1.442 0 .7.494 1.505 1.22 2.474 1.001 1.33 2.636 3.27 2.636 5.066 0 1.162-.68 1.903-1.093 2.193.354-.08.709-.106 1.073-.106 1.295 0 3.597.36 5.873.953-.365-2.489-1.785-7.795-6.96-11.504-.507-.36-.933-.518-1.325-.518zm-10.07-3.739c-2.882 0-6.738.594-10.444 3.266-.732.508-.981 1.046-.981 1.48 0 .45.358 1.48 1.604 1.48 1.792 0 4.19-1.566 6.66-1.566 2.317 0 2.879 1.649 2.96 1.898.069-1.066 1.012-3.33 2.954-6.37-.688-.114-1.642-.188-2.753-.188z" transform="translate(35 35)"/>
                <path fill="#FFF" d="M77 56L84 56 84 21 77 21zM70.595 48.746l.405-.264-1.708 6.838-.077.05c-1.16.732-3.109 1.696-6.299 1.626-4.737-.078-7.904-3.81-7.904-9.27V27.715H49v-6.667h6.012v-7.219L62.003 10v11.047h7.225v6.667h-7.225v18.823c0 2.757 1.017 3.996 3.326 3.996 1.59 0 3.366-.601 5.266-1.787zM35 56L42 56 42 21 35 21zM7.274 38.996c0 6.504 4.592 11.181 10.93 11.181 3.05 0 6-1.348 8.539-3.908l.153-.165L31 50.976l-.114.127C27.48 55.075 23.408 57 18.407 57c-5.02 0-9.598-1.66-12.93-4.683C1.904 49.047 0 44.437 0 38.997c0-5.455 1.905-10.057 5.476-13.32C8.81 22.653 13.386 21 18.407 21c5.001 0 9.073 1.913 12.48 5.887l.113.123-4.104 4.883-.153-.155c-2.54-2.583-5.49-3.937-8.538-3.937-6.339 0-10.931 4.718-10.931 11.195zM350 56h-8.151l-3.314-6.067c-1.392-2.533-2.983-5.733-3.648-7.066-.595 1.333-2.45 4.733-3.777 7.133l-3.378 6H320l10.674-18.133L320.73 21h7.928l2.72 4.933c1.39 2.534 3.046 5.667 3.644 7 .73-1.333 2.385-4.666 3.709-7.133l2.652-4.8h7.887l-10.012 16.867L350 56zM303.864 20C313.718 20 319 28.185 319 37.79c0 1.285-.131 2.435-.199 3.179h-23.988c.728 6.832 5.016 9.65 9.25 9.65 2.91 0 6.004-1.082 8.316-2.84l3.776 4.554c-3.04 2.976-7.197 4.667-12.49 4.667C295.531 57 288 50.304 288 38.534 288 26.494 294.87 20 303.864 20zm-.462 6.29c-4.564 0-7.861 3.247-8.454 8.929h17.175c-.334-4.87-3.101-8.928-8.72-8.928zM283 35.52V56h-7.03V36.052c0-7.12-2.19-9.672-6.71-9.672-4.582 0-6.613 3.292-6.613 9V56h-7.03V36.052c0-7.12-2.099-9.672-6.62-9.672-4.58 0-6.968 3.292-6.968 9V56H235V20.739h7.03v3.358c1.726-2.552 4.977-4.097 8.563-4.097 4.72 0 7.706 1.813 9.568 5.171C262.684 22.015 265.41 20 270.854 20 278.96 20 283 23.701 283 35.52zM214.875 20C222.833 20 229 23.856 229 31.905v24.351h-7.196v-3.517C219.355 55.174 215.619 57 211.74 57 205.96 57 199 53.753 199 45.028c0-7.915 6.483-11.5 14.579-11.5 3.332 0 6.252.474 8.225 1.353v-2.638c0-3.856-2.915-6.02-7.268-6.02-3.673 0-6.53.676-9.32 2.232l-2.72-5.276c3.4-2.097 7.344-3.179 12.379-3.179zm-1.5 19.548c-4.49 0-7.614 2.03-7.614 5.276 0 3.518 2.511 5.885 7.137 5.885 3.741 0 7.274-2.3 8.906-4.532v-5.073c-1.905-.947-4.62-1.556-8.43-1.556zM145.874 20C153.832 20 160 23.856 160 31.905v24.351h-7.197v-3.517C150.354 55.174 146.618 57 142.74 57 136.959 57 130 53.753 130 45.028c0-7.915 6.483-11.5 14.578-11.5 3.332 0 6.252.474 8.225 1.353v-2.638c0-3.856-2.914-6.02-7.268-6.02-3.673 0-6.53.676-9.319 2.232l-2.72-5.276c3.4-2.097 7.344-3.179 12.378-3.179zm-1.5 19.548c-4.49 0-7.614 2.03-7.614 5.276 0 3.518 2.512 5.885 7.137 5.885 3.741 0 7.274-2.3 8.906-4.532v-5.073c-1.905-.947-4.62-1.556-8.43-1.556zM195 35.784V56h-7.11V36.052c0-7.12-2.689-9.672-7.258-9.672-4.637 0-7.522 3.292-7.522 9V56H166V20.739h7.11v3.358c1.748-2.552 5.628-4.097 9.257-4.097C190.566 20 195 24.554 195 35.784zM103.054 10v14.357c2.534-2.351 5.99-4.097 9.657-4.097 7.534 0 14.289 5.507 14.289 18.94 0 12.091-7.355 17.8-14.622 17.8-3.534 0-7.39-1.88-9.324-4.03v3.291H96v-42.45L103.054 10zm8.39 16.64c-3.266 0-6.656 2.217-8.456 4.5v14.844c1.533 2.083 5.256 4.635 8.723 4.635 4.934 0 8.384-3.761 8.384-11.216 0-8.867-3.584-12.762-8.65-12.762z" transform="translate(35 35)"/>
            </g>
        </g>
    </g>
</svg>
