<svg xmlns="http://www.w3.org/2000/svg" xmlns:xlink="http://www.w3.org/1999/xlink" width="16" height="16" viewBox="0 0 16 16">
    <defs>
        <path id="7n07145aea" d="M8 .462c4.163 0 7.538 3.375 7.538 7.538S12.163 15.538 8 15.538.462 12.163.462 8 3.837.462 8 .462zm0 .923C4.346 1.385 1.385 4.346 1.385 8c0 3.654 2.961 6.615 6.615 6.615 3.654 0 6.615-2.961 6.615-6.615 0-3.654-2.961-6.615-6.615-6.615zm0 9.23c.255 0 .462.207.462.462s-.207.461-.462.461-.462-.206-.462-.461.207-.462.462-.462zm.582-6.413c1.937.272 2.267 2.731.95 3.546-.682.422-.939.742-1.077 1.56-.042.251-.28.42-.532.378-.251-.043-.42-.28-.378-.532.188-1.111.613-1.641 1.501-2.19.62-.384.442-1.702-.593-1.848-.964-.136-1.57.077-1.908.617-.136.215-.42.28-.636.145-.216-.135-.282-.42-.146-.636.553-.882 1.523-1.222 2.819-1.04z"/>
    </defs>
    <g fill="none" fill-rule="evenodd">
        <g>
            <g>
                <g transform="translate(-1137 -115) translate(206 108) translate(931 7)">
                    <use fill="#056DAE" xlink:href="#7n07145aea"/>
                </g>
            </g>
        </g>
    </g>
</svg>
