<svg xmlns="http://www.w3.org/2000/svg" xmlns:xlink="http://www.w3.org/1999/xlink" width="26" height="26" viewBox="0 0 26 26">
    <defs>
        <path id="2a7m3ygqga" d="M13.297 1.814l.094.05 10.507 6.535c.352.219.46.681.241 1.033-.199.32-.6.438-.935.292l-.098-.051-.858-.535V23.5c0 .38-.282.693-.648.743l-.102.007h-6c-.38 0-.694-.282-.743-.648l-.007-.102v-6.25h-3.5v6.25c0 .38-.282.693-.648.743l-.102.007h-6c-.38 0-.694-.282-.743-.648l-.007-.102V9.14l-.854.533c-.32.199-.73.128-.967-.15l-.066-.09c-.199-.32-.128-.732.15-.968l.09-.066 10.497-6.536c.212-.132.474-.148.699-.05zm-.302 1.569L5.248 8.206V22.75h4.5V16.5c0-.38.282-.693.648-.743l.102-.007h5c.38 0 .693.282.743.648l.007.102v6.25h4.5V8.205l-7.753-4.822z"/>
    </defs>
    <g fill="none" fill-rule="evenodd">
        <g>
            <use fill="#056DAE" xlink:href="#2a7m3ygqga"/>
        </g>
    </g>
</svg>
