<svg xmlns="http://www.w3.org/2000/svg" width="18" height="18" viewBox="0 0 18 18">
    <g fill="none" fill-rule="evenodd">
        <g fill="#056DAE">
            <g>
                <path d="M9 .563c4.66 0 8.438 3.777 8.438 8.437 0 4.66-3.778 8.438-8.438 8.438S.562 13.66.562 9 4.34.562 9 .562zm0 1.125C4.961 1.688 1.687 4.96 1.687 9S4.962 16.313 9 16.313 16.313 13.038 16.313 9 13.038 1.687 9 1.687zM8.906 12c.363 0 .656.294.656.656 0 .363-.293.656-.656.656-.362 0-.656-.293-.656-.656 0-.362.294-.656.656-.656zm.702-7.26c2.055.304 2.4 3 1.008 3.904-.705.458-.966.845-1.08 1.916-.034.309-.311.532-.62.5-.309-.034-.533-.311-.5-.62.154-1.426.612-2.106 1.587-2.74.574-.372.403-1.705-.56-1.847-.939-.139-1.51.072-1.835.615-.16.267-.505.354-.771.195-.267-.16-.354-.505-.195-.771.581-.974 1.61-1.352 2.966-1.152z" transform="translate(-204 -196) translate(204 196)"/>
            </g>
        </g>
    </g>
</svg>
