<svg xmlns="http://www.w3.org/2000/svg" xmlns:xlink="http://www.w3.org/1999/xlink" width="26" height="26" viewBox="0 0 26 26">
    <defs>
        <path id="8or7tt2wba" d="M15.75 1c1.463 0 2.658 1.142 2.745 2.582l.005.168v1.875c0 .414-.336.75-.75.75-.38 0-.693-.282-.743-.648L17 5.625V3.75c0-.647-.492-1.18-1.122-1.244L15.75 2.5h-11c-.647 0-1.18.492-1.244 1.122L3.5 3.75v19c0 .647.492 1.18 1.122 1.244L4.75 24h11c.647 0 1.18-.492 1.244-1.122L17 22.75v-1.875c0-.414.336-.75.75-.75.38 0 .693.282.743.648l.007.102v1.875c0 1.463-1.142 2.658-2.582 2.745l-.168.005h-11c-1.463 0-2.658-1.142-2.745-2.582L2 22.75v-19c0-1.463 1.142-2.658 2.582-2.745L4.75 1h11zm2.285 7.556l.091.045 5.58 3.237c.778.473 1.027 1.486.556 2.265-.11.182-.254.34-.43.471l-.138.093-5.568 3.232c-.358.208-.817.086-1.025-.273-.19-.328-.104-.74.188-.968l.085-.057L21.854 14H11.75c-.414 0-.75-.336-.75-.75 0-.38.282-.693.648-.743l.102-.007h10.109l-4.485-2.601c-.359-.208-.48-.667-.273-1.025.19-.329.592-.459.934-.318z"/>
    </defs>
    <g fill="none" fill-rule="evenodd">
        <g>
            <use fill="#ffffff" xlink:href="#8or7tt2wba"/>
        </g>
    </g>
</svg>
