<svg xmlns="http://www.w3.org/2000/svg" xmlns:xlink="http://www.w3.org/1999/xlink" width="16" height="16" viewBox="0 0 16 16">
    <defs>
        <path id="161hy8vy5a" d="M9.385.462c.315 0 .575.237.61.543l.005.072V3l.061.024.06.026 1.36-1.36c.203-.203.514-.234.75-.093l.062.042.058.051L14.31 3.65c.221.221.238.57.05.812l-.05.058-1.36 1.36.026.06.023.061h1.924c.291 0 .535.202.6.474l.011.07.004.071v2.77c0 .315-.237.575-.543.61l-.072.005H13l-.023.061-.026.06 1.36 1.36c.203.203.234.514.093.75l-.042.062-.051.058-1.959 1.959c-.221.221-.57.238-.812.05l-.058-.05-1.36-1.36-.06.026-.061.023v1.924c0 .291-.202.535-.474.6l-.07.011-.071.004h-2.77c-.315 0-.575-.237-.61-.543L6 14.923v-1.924l-.061-.023-.06-.026-1.36 1.36c-.203.203-.514.234-.75.093l-.062-.042-.058-.051L1.69 12.35c-.221-.221-.238-.57-.05-.812l.05-.058 1.36-1.36-.026-.06L3 10 1.077 10c-.291 0-.535-.202-.6-.474l-.011-.07-.004-.071v-2.77c0-.315.237-.575.543-.61L1.077 6H3l.024-.061.026-.06-1.36-1.36c-.203-.203-.234-.514-.093-.75l.042-.062.051-.058L3.65 1.69c.221-.221.57-.238.812-.05l.058.05 1.36 1.36.06-.026L6 3V1.077c0-.291.202-.535.474-.6l.07-.011.071-.004h2.77zm-.309.922H6.922l.001 1.938c0 .155-.077.296-.2.381l-.056.033-.061.024c-.212.07-.418.156-.617.256-.158.08-.346.062-.485-.042l-.05-.043-1.37-1.371L2.56 4.084l1.37 1.37c.11.11.156.265.128.412l-.016.062-.026.06c-.1.2-.186.405-.255.617-.056.169-.202.288-.373.313l-.066.005H1.384v2.154h1.938c.155 0 .296.077.381.2l.033.056.024.061c.07.212.156.418.256.617.08.158.062.346-.042.485l-.043.05-1.371 1.37 1.524 1.523 1.37-1.37c.11-.11.265-.155.412-.127l.062.016.06.026c.2.1.406.186.618.256.168.055.288.2.313.373l.004.065v1.937h2.154v-1.937c0-.155.078-.297.201-.381l.056-.033.06-.025c.213-.07.418-.155.617-.255.158-.08.346-.062.485.042l.05.043 1.37 1.37 1.523-1.523-1.37-1.37c-.11-.11-.155-.265-.127-.412l.016-.062.026-.06c.1-.2.186-.405.255-.617.056-.169.202-.288.373-.313l.066-.005h1.937V6.921l-1.937.001c-.155 0-.296-.077-.381-.2l-.033-.056-.024-.061c-.07-.212-.156-.418-.256-.617-.08-.158-.062-.346.042-.485l.043-.05 1.37-1.37-1.523-1.524-1.37 1.37c-.11.11-.265.156-.412.128l-.062-.016-.06-.026c-.2-.1-.405-.186-.617-.255-.169-.056-.288-.202-.313-.373l-.005-.066V1.384zM8 5.384c1.444 0 2.615 1.172 2.615 2.616 0 1.444-1.17 2.615-2.615 2.615-1.444 0-2.615-1.17-2.615-2.615 0-1.444 1.17-2.615 2.615-2.615zm0 .924c-.935 0-1.692.757-1.692 1.692 0 .935.757 1.692 1.692 1.692.935 0 1.692-.757 1.692-1.692 0-.935-.757-1.692-1.692-1.692z"/>
    </defs>
    <g fill="none" fill-rule="evenodd">
        <g>
            <g>
                <g transform="translate(-966 -115) translate(206 108) translate(760 7)">
                    <use fill="#056DAE" xlink:href="#161hy8vy5a"/>
                </g>
            </g>
        </g>
    </g>
</svg>
